<?xml version="1.0" standalone="no"?>
<!DOCTYPE svg PUBLIC "-//W3C//DTD SVG 20010904//EN"
 "http://www.w3.org/TR/2001/REC-SVG-20010904/DTD/svg10.dtd">
<svg version="1.0" xmlns="http://www.w3.org/2000/svg"
 width="1000.000000pt" height="1000.000000pt" viewBox="0 0 1000.000000 1000.000000"
 preserveAspectRatio="xMidYMid meet">
<metadata>
Created by potrace 1.14, written by Peter Selinger 2001-2017
</metadata>
<g transform="translate(0.000000,1000.000000) scale(0.100000,-0.100000)"
fill="#000000" stroke="none">
<path d="M685 9985 c-227 -36 -424 -150 -531 -309 -56 -83 -114 -242 -136
-374 -16 -95 -24 -8352 -8 -8537 38 -454 295 -720 725 -751 67 -5 2010 -7
4390 -4 l4270 6 90 23 c288 76 429 224 493 521 15 68 16 448 20 4285 2 2949 0
4258 -8 4370 -18 273 -74 436 -194 563 -109 115 -246 178 -446 208 -135 19
-8541 19 -8665 -1z m4750 -1010 c764 -87 1455 -375 2065 -861 172 -137 464
-430 604 -604 459 -575 748 -1244 845 -1956 112 -817 -19 -1614 -383 -2342
-201 -401 -427 -714 -751 -1038 -204 -204 -379 -349 -605 -499 -558 -372
-1140 -581 -1830 -657 -149 -16 -621 -16 -770 0 -805 89 -1502 374 -2120 868
-172 137 -465 430 -604 604 -459 575 -748 1244 -845 1956 -112 817 19 1614
383 2342 201 401 427 714 751 1038 702 703 1576 1096 2595 1168 115 8 531 -4
665 -19z"/>
<path d="M4745 8924 c-22 -2 -92 -9 -155 -15 -829 -78 -1669 -462 -2279 -1043
-371 -354 -632 -709 -847 -1151 -200 -414 -312 -797 -371 -1275 -25 -204 -25
-687 1 -885 75 -589 246 -1095 533 -1575 324 -542 801 -1021 1338 -1345 991
-597 2185 -728 3280 -360 998 335 1822 1061 2281 2010 200 413 309 787 370
1270 26 198 26 681 1 885 -59 478 -171 861 -371 1275 -215 442 -476 797 -847
1151 -601 572 -1383 936 -2234 1040 -123 15 -606 27 -700 18z m-1445 -3399
c116 -174 214 -313 219 -311 5 3 100 145 212 316 l204 310 133 0 c72 0 132 -3
132 -6 0 -3 -124 -186 -276 -406 l-275 -400 17 -26 c10 -15 140 -206 291 -425
150 -219 273 -400 273 -402 0 -3 -62 -5 -138 -5 l-139 0 -223 341 c-181 276
-225 338 -235 327 -7 -7 -111 -158 -230 -336 -119 -178 -223 -326 -229 -328
-7 -3 -69 -3 -139 -2 l-126 3 295 423 c163 233 293 429 291 436 -3 8 -120 179
-260 382 -139 203 -262 381 -271 397 l-18 27 141 0 141 0 210 -315z m2078 300
c247 -58 384 -277 343 -546 -22 -142 -113 -284 -218 -342 -96 -52 -140 -57
-480 -57 l-313 0 0 -355 0 -355 -115 0 -115 0 0 835 0 835 418 0 c333 0 430
-3 480 -15z m1852 -85 l0 -100 -280 0 -280 0 0 -735 0 -735 -115 0 -115 0 0
735 0 735 -280 0 -280 0 0 100 0 100 675 0 675 0 0 -100z"/>
<path d="M4710 5359 l0 -290 288 3 288 3 69 35 c92 46 123 90 137 191 21 142
-26 255 -124 303 -75 36 -160 46 -425 46 l-233 0 0 -291z"/>
</g>
</svg>
